<svg width="23" height="23" viewBox="0 0 23 23" fill="none" xmlns="http://www.w3.org/2000/svg">
<rect x="0.873389" y="1.2006" width="4.27323" height="20.5989" stroke="url(#paint0_linear_35_6431)" stroke-width="0.746779"/>
<rect x="6.80607" y="1.2006" width="4.27323" height="20.5989" fill="url(#paint1_linear_35_6431)" stroke="url(#paint2_linear_35_6431)" stroke-width="0.746779"/>
<rect x="6.80607" y="1.2006" width="4.27323" height="2.23169" stroke="url(#paint3_linear_35_6431)" stroke-width="0.746779"/>
<rect x="6.80607" y="19.0714" width="4.27323" height="2.23169" stroke="url(#paint4_linear_35_6431)" stroke-width="0.746779"/>
<rect x="0.873389" y="19.0714" width="4.27323" height="2.23169" stroke="url(#paint5_linear_35_6431)" stroke-width="0.746779"/>
<rect x="0.873389" y="5.17185" width="4.27323" height="2.23169" stroke="url(#paint6_linear_35_6431)" stroke-width="0.746779"/>
<rect x="0.446841" y="0.260023" width="4.30299" height="2.21668" transform="matrix(0.961298 -0.27551 0.235417 0.971895 12.9683 6.17009)" stroke="url(#paint7_linear_35_6431)" stroke-width="0.746779"/>
<rect x="0.457108" y="0.237583" width="4.31459" height="20.4491" transform="matrix(0.94598 -0.324225 0.278233 0.960514 11.7732 2.29864)" stroke="url(#paint8_linear_35_6431)" stroke-width="0.746779"/>
<defs>
<linearGradient id="paint0_linear_35_6431" x1="3.01" y1="0.827209" x2="3.01" y2="22.1729" gradientUnits="userSpaceOnUse">
<stop stop-color="#3391FF"/>
<stop offset="1" stop-color="#58FFE1"/>
</linearGradient>
<linearGradient id="paint1_linear_35_6431" x1="8.94268" y1="0.827209" x2="8.94268" y2="22.1729" gradientUnits="userSpaceOnUse">
<stop stop-color="#3391FF"/>
<stop offset="1" stop-color="#58FFE1"/>
</linearGradient>
<linearGradient id="paint2_linear_35_6431" x1="8.94268" y1="0.827209" x2="8.94268" y2="22.1729" gradientUnits="userSpaceOnUse">
<stop stop-color="#3391FF"/>
<stop offset="1" stop-color="#58FFE1"/>
</linearGradient>
<linearGradient id="paint3_linear_35_6431" x1="8.94268" y1="0.827209" x2="8.94268" y2="3.80568" gradientUnits="userSpaceOnUse">
<stop stop-color="#3391FF"/>
<stop offset="1" stop-color="#58FFE1"/>
</linearGradient>
<linearGradient id="paint4_linear_35_6431" x1="8.94268" y1="18.698" x2="8.94268" y2="21.6765" gradientUnits="userSpaceOnUse">
<stop stop-color="#3391FF"/>
<stop offset="1" stop-color="#58FFE1"/>
</linearGradient>
<linearGradient id="paint5_linear_35_6431" x1="3.01" y1="18.698" x2="3.01" y2="21.6765" gradientUnits="userSpaceOnUse">
<stop stop-color="#3391FF"/>
<stop offset="1" stop-color="#58FFE1"/>
</linearGradient>
<linearGradient id="paint6_linear_35_6431" x1="3.01" y1="4.79846" x2="3.01" y2="7.77693" gradientUnits="userSpaceOnUse">
<stop stop-color="#3391FF"/>
<stop offset="1" stop-color="#58FFE1"/>
</linearGradient>
<linearGradient id="paint7_linear_35_6431" x1="2.52489" y1="0" x2="2.52489" y2="2.96346" gradientUnits="userSpaceOnUse">
<stop stop-color="#3391FF"/>
<stop offset="1" stop-color="#58FFE1"/>
</linearGradient>
<linearGradient id="paint8_linear_35_6431" x1="2.53068" y1="0" x2="2.53068" y2="21.1959" gradientUnits="userSpaceOnUse">
<stop stop-color="#3391FF"/>
<stop offset="1" stop-color="#58FFE1"/>
</linearGradient>
</defs>
</svg>
