<svg width="23" height="20" viewBox="0 0 23 20" fill="none" xmlns="http://www.w3.org/2000/svg">
<path d="M0.5 9.82697C0.5 10.2893 0.851495 10.6805 1.42831 10.6805C1.7077 10.6805 1.95104 10.5382 2.16735 10.3515L3.20381 9.498V17.7755C3.20381 19.0914 4.00594 19.8649 5.37587 19.8649H17.5701C18.94 19.8649 19.7421 19.0914 19.7421 17.7755V9.44465L20.8417 10.3515C21.058 10.5382 21.3013 10.6805 21.5807 10.6805C22.1034 10.6805 22.5 10.3604 22.5 9.85364C22.5 9.55134 22.3828 9.31129 22.1485 9.12458L19.7421 7.12411V3.34545C19.7421 2.94535 19.4807 2.68752 19.0752 2.68752H17.8585C17.4619 2.68752 17.1915 2.94535 17.1915 3.34545V5.00806L12.7753 1.34498C12.0002 0.704831 11.0268 0.704831 10.2427 1.34498L0.851495 9.12458C0.617165 9.32018 0.5 9.57802 0.5 9.82697ZM14.0912 12.2898C14.0912 11.8719 13.8208 11.6052 13.3972 11.6052H9.60283C9.18824 11.6052 8.89984 11.8719 8.89984 12.2898V18.1222H5.84453C5.27673 18.1222 4.9703 17.8111 4.9703 17.2509V8.03099L11.126 2.94535C11.3693 2.73197 11.6487 2.73197 11.8921 2.94535L17.9756 7.97764V17.2509C17.9756 17.8111 17.6692 18.1222 17.1014 18.1222H14.0912V12.2898Z" fill="white" fill-opacity="0.53"/>
</svg>
