<svg width="22" height="19" viewBox="0 0 22 19" fill="none" xmlns="http://www.w3.org/2000/svg">
<path d="M0 8.9621C0 9.42443 0.351495 9.81563 0.928308 9.81563C1.2077 9.81563 1.45104 9.67337 1.66735 9.48666L2.70381 8.63313V16.9106C2.70381 18.2265 3.50594 19 4.87587 19H17.0701C18.44 19 19.2421 18.2265 19.2421 16.9106V8.57979L20.3417 9.48666C20.558 9.67337 20.8013 9.81563 21.0807 9.81563C21.6034 9.81563 22 9.49555 22 8.98877C22 8.68648 21.8828 8.44642 21.6485 8.25971L19.2421 6.25924V2.48058C19.2421 2.08049 18.9807 1.82265 18.5752 1.82265H17.3585C16.9619 1.82265 16.6915 2.08049 16.6915 2.48058V4.14319L12.2753 0.480112C11.5002 -0.160037 10.5268 -0.160037 9.74273 0.480112L0.351495 8.25971C0.117165 8.45531 0 8.71315 0 8.9621ZM13.5912 11.4249C13.5912 11.007 13.3208 10.7403 12.8972 10.7403H9.10283C8.68824 10.7403 8.39984 11.007 8.39984 11.4249V17.2574H5.34453C4.77673 17.2574 4.4703 16.9462 4.4703 16.3861V7.16612L10.626 2.08049C10.8693 1.8671 11.1487 1.8671 11.3921 2.08049L17.4756 7.11278V16.3861C17.4756 16.9462 17.1692 17.2574 16.6014 17.2574H13.5912V11.4249Z" fill="url(#paint0_linear_35_6334)"/>
<defs>
<linearGradient id="paint0_linear_35_6334" x1="11" y1="4.74484e-07" x2="11" y2="48" gradientUnits="userSpaceOnUse">
<stop stop-color="#27A9F2"/>
<stop offset="1" stop-color="#00FABE"/>
</linearGradient>
</defs>
</svg>
