<svg width="19" height="19" viewBox="0 0 19 19" fill="none" xmlns="http://www.w3.org/2000/svg">
<path d="M9.5 19C14.696 19 19 14.7052 19 9.5C19 4.30397 14.696 0 9.4908 0C4.29477 0 0 4.30397 0 9.5C0 14.7052 4.30397 19 9.5 19ZM9.5 11.0082C7.69748 10.999 6.29961 9.4908 6.29961 7.50436C6.29042 5.62827 7.70668 4.06486 9.5 4.06486C11.2841 4.06486 12.6912 5.62827 12.6912 7.50436C12.6912 9.4908 11.2933 11.0266 9.5 11.0082ZM9.5 17.4458C7.43998 17.4458 5.25121 16.5905 3.86254 15.0915C4.91094 13.5097 7.01694 12.5992 9.5 12.5992C11.9555 12.5992 14.0707 13.4913 15.1283 15.0915C13.7396 16.5905 11.56 17.4458 9.5 17.4458Z" fill="white" fill-opacity="0.53"/>
</svg>
