<svg width="20" height="19" viewBox="0 0 20 19" fill="none" xmlns="http://www.w3.org/2000/svg">
<path d="M10 19C15.196 19 19.5 14.7052 19.5 9.5C19.5 4.30397 15.196 0 9.9908 0C4.79477 0 0.5 4.30397 0.5 9.5C0.5 14.7052 4.80397 19 10 19ZM10 11.0082C8.19748 10.999 6.79961 9.4908 6.79961 7.50436C6.79042 5.62827 8.20668 4.06486 10 4.06486C11.7841 4.06486 13.1912 5.62827 13.1912 7.50436C13.1912 9.4908 11.7933 11.0266 10 11.0082ZM10 17.4458C7.93998 17.4458 5.75121 16.5905 4.36254 15.0915C5.41094 13.5097 7.51694 12.5992 10 12.5992C12.4555 12.5992 14.5707 13.4913 15.6283 15.0915C14.2396 16.5905 12.06 17.4458 10 17.4458Z" fill="url(#paint0_linear_35_6539)"/>
<defs>
<linearGradient id="paint0_linear_35_6539" x1="10" y1="0" x2="10" y2="19" gradientUnits="userSpaceOnUse">
<stop stop-color="#3391FF"/>
<stop offset="1" stop-color="#58FFE1"/>
</linearGradient>
</defs>
</svg>
